# Blender v3.0.1 OBJ File: 'y_axis.blend'
# www.blender.org
mtllib y_axis.mtl
o Cone
v 0.000000 -0.500000 -3.700000
v 0.000000 -0.200000 0.000000
v 0.097545 -0.490393 -3.700000
v 0.191342 -0.461940 -3.700000
v 0.039018 -0.196157 0.000000
v 0.277785 -0.415735 -3.700000
v 0.353553 -0.353553 -3.700000
v 0.076537 -0.184776 0.000000
v 0.415735 -0.277785 -3.700000
v 0.461940 -0.191342 -3.700000
v 0.111114 -0.166294 0.000000
v 0.490393 -0.097545 -3.700000
v 0.500000 0.000000 -3.700000
v 0.141421 -0.141421 0.000000
v 0.490393 0.097545 -3.700000
v 0.461940 0.191342 -3.700000
v 0.166294 -0.111114 0.000000
v 0.415735 0.277785 -3.700000
v 0.353553 0.353553 -3.700000
v 0.184776 -0.076536 0.000000
v 0.277785 0.415735 -3.700000
v 0.196157 -0.039018 0.000000
v 0.191342 0.461940 -3.700000
v 0.097545 0.490393 -3.700000
v 0.200000 0.000000 0.000000
v -0.000000 0.500000 -3.700000
v -0.097545 0.490393 -3.700000
v 0.196157 0.039018 0.000000
v -0.191342 0.461940 -3.700000
v -0.277785 0.415735 -3.700000
v 0.184776 0.076537 0.000000
v -0.353553 0.353553 -3.700000
v -0.415735 0.277785 -3.700000
v 0.166294 0.111114 0.000000
v -0.461940 0.191342 -3.700000
v -0.490393 0.097545 -3.700000
v 0.141421 0.141422 0.000000
v -0.500000 0.000000 -3.700000
v -0.490393 -0.097545 -3.700000
v -0.461940 -0.191342 -3.700000
v 0.111114 0.166294 0.000000
v -0.415735 -0.277785 -3.700000
v -0.353553 -0.353553 -3.700000
v 0.076537 0.184776 0.000000
v -0.277785 -0.415735 -3.700000
v -0.191342 -0.461940 -3.700000
v 0.039018 0.196157 0.000000
v -0.097545 -0.490393 -3.700000
v 0.000000 -0.000000 -4.700000
v -0.000000 0.200000 0.000000
v -0.039018 0.196157 0.000000
v -0.076537 0.184776 0.000000
v -0.111114 0.166294 0.000000
v -0.141421 0.141422 0.000000
v -0.166294 0.111114 0.000000
v -0.184776 0.076537 0.000000
v -0.196157 0.039018 0.000000
v -0.200000 0.000000 0.000000
v -0.196157 -0.039018 0.000000
v -0.184776 -0.076537 0.000000
v -0.166294 -0.111114 0.000000
v -0.141421 -0.141421 0.000000
v -0.111114 -0.166294 0.000000
v -0.076537 -0.184776 0.000000
v -0.039018 -0.196157 0.000000
v 0.076537 0.184776 -3.700000
v 0.039018 0.196157 -3.700000
v -0.000000 0.200000 -3.700000
v 0.000000 -0.200000 -3.700000
v 0.039018 -0.196157 -3.700000
v 0.111114 -0.166294 -3.700000
v 0.111114 0.166294 -3.700000
v -0.039018 0.196157 -3.700000
v 0.076537 -0.184776 -3.700000
v 0.166294 0.111114 -3.700000
v 0.166294 -0.111114 -3.700000
v 0.200000 0.000000 -3.700000
v 0.196157 -0.039018 -3.700000
v 0.184776 0.076537 -3.700000
v 0.196157 0.039018 -3.700000
v 0.184776 -0.076537 -3.700000
v -0.076537 0.184776 -3.700000
v 0.141421 -0.141421 -3.700000
v 0.141421 0.141421 -3.700000
v -0.076537 -0.184776 -3.700000
v -0.039018 -0.196157 -3.700000
v -0.111114 0.166294 -3.700000
v -0.141421 0.141421 -3.700000
v -0.166294 0.111114 -3.700000
v -0.200000 0.000000 -3.700000
v -0.184776 0.076537 -3.700000
v -0.196157 0.039018 -3.700000
v -0.196157 -0.039018 -3.700000
v -0.166294 -0.111114 -3.700000
v -0.184776 -0.076537 -3.700000
v -0.111114 -0.166294 -3.700000
v -0.141421 -0.141421 -3.700000
vt 0.250000 0.250000
vt 0.296822 0.485388
vt 0.250000 0.490000
vt 0.341844 0.471731
vt 0.383337 0.449553
vt 0.419706 0.419706
vt 0.449553 0.383337
vt 0.471731 0.341844
vt 0.485388 0.296822
vt 0.490000 0.250000
vt 0.485388 0.203178
vt 0.471731 0.158156
vt 0.449553 0.116663
vt 0.419706 0.080294
vt 0.383337 0.050447
vt 0.341844 0.028269
vt 0.296822 0.014612
vt 0.250000 0.010000
vt 0.203178 0.014612
vt 0.158156 0.028269
vt 0.116663 0.050447
vt 0.080294 0.080294
vt 0.050447 0.116663
vt 0.028269 0.158156
vt 0.014612 0.203178
vt 0.010000 0.250000
vt 0.014612 0.296822
vt 0.028269 0.341844
vt 0.050447 0.383337
vt 0.080294 0.419706
vt 0.116663 0.449553
vt 0.158156 0.471731
vt 0.768729 0.344155
vt 0.750000 0.346000
vt 0.796822 0.485388
vt 0.796822 0.014612
vt 0.768729 0.155845
vt 0.786738 0.161308
vt 0.203178 0.485388
vt 1.000000 0.500000
vt 0.968750 0.962500
vt 0.968750 0.500000
vt 0.937500 0.962500
vt 0.937500 0.500000
vt 0.906250 0.962500
vt 0.906250 0.500000
vt 0.875000 0.962500
vt 0.875000 0.500000
vt 0.843750 0.500000
vt 0.843750 0.962500
vt 0.812500 0.500000
vt 0.812500 0.962500
vt 0.781250 0.500000
vt 0.781250 0.962500
vt 0.750000 0.500000
vt 0.750000 0.962500
vt 0.718750 0.500000
vt 0.718750 0.962500
vt 0.687500 0.500000
vt 0.687500 0.962500
vt 0.656250 0.500000
vt 0.656250 0.962500
vt 0.625000 0.500000
vt 0.625000 0.962500
vt 0.593750 0.500000
vt 0.593750 0.962500
vt 0.562500 0.500000
vt 0.562500 0.962500
vt 0.531250 0.500000
vt 0.531250 0.962500
vt 0.500000 0.500000
vt 0.500000 0.962500
vt 0.468750 0.500000
vt 0.468750 0.962500
vt 0.437500 0.500000
vt 0.437500 0.962500
vt 0.406250 0.500000
vt 0.406250 0.962500
vt 0.375000 0.500000
vt 0.375000 0.962500
vt 0.343750 0.962500
vt 0.343750 0.500000
vt 0.312500 0.962500
vt 0.312500 0.500000
vt 0.281250 0.962500
vt 0.281250 0.500000
vt 0.250000 0.962500
vt 0.250000 0.500000
vt 0.218750 0.962500
vt 0.218750 0.500000
vt 0.187500 0.962500
vt 0.187500 0.500000
vt 0.156250 0.962500
vt 0.156250 0.500000
vt 0.125000 0.962500
vt 0.125000 0.500000
vt 0.093750 0.962500
vt 0.093750 0.500000
vt 0.062500 0.962500
vt 0.062500 0.500000
vt 0.031250 0.962500
vt 0.031250 0.500000
vt 0.000000 0.962500
vt 0.000000 0.500000
vt 0.658156 0.471731
vt 0.971731 0.341844
vt 0.841844 0.028269
vt 0.658156 0.471731
vt 0.703178 0.485388
vt 0.713262 0.338692
vt 0.750000 0.490000
vt 0.731271 0.344155
vt 0.696665 0.329821
vt 0.841844 0.471731
vt 0.883337 0.449553
vt 0.803335 0.329821
vt 0.919706 0.419706
vt 0.817882 0.317882
vt 0.829821 0.303335
vt 0.949553 0.383337
vt 0.971731 0.341844
vt 0.838692 0.286738
vt 0.985388 0.296822
vt 0.844155 0.268729
vt 0.616663 0.449553
vt 0.580294 0.419706
vt 0.682118 0.317882
vt 0.528269 0.341844
vt 0.550447 0.383337
vt 0.670179 0.303335
vt 0.510000 0.250000
vt 0.514612 0.296822
vt 0.655845 0.268729
vt 0.661307 0.286738
vt 0.655845 0.231271
vt 0.514612 0.203178
vt 0.654000 0.250000
vt 0.786737 0.338692
vt 0.846000 0.250000
vt 0.990000 0.250000
vt 0.985388 0.203178
vt 0.844155 0.231271
vt 0.838692 0.213262
vt 0.971731 0.158156
vt 0.949553 0.116663
vt 0.919706 0.080294
vt 0.829821 0.196665
vt 0.883337 0.050447
vt 0.817882 0.182118
vt 0.841844 0.028269
vt 0.803335 0.170179
vt 0.750000 0.010000
vt 0.750000 0.154000
vt 0.703178 0.014612
vt 0.731271 0.155845
vt 0.713262 0.161308
vt 0.658156 0.028269
vt 0.616663 0.050447
vt 0.696665 0.170179
vt 0.580294 0.080294
vt 0.550447 0.116663
vt 0.682118 0.182118
vt 0.528269 0.158156
vt 0.670179 0.196665
vt 0.661307 0.213262
vt 1.000000 0.962500
vt 0.703178 0.485388
vt 0.750000 0.490000
vt 0.796822 0.485388
vt 0.841844 0.471731
vt 0.883337 0.449553
vt 0.919706 0.419706
vt 0.949553 0.383337
vt 0.985388 0.296822
vt 0.990000 0.250000
vt 0.985388 0.203178
vt 0.971731 0.158156
vt 0.949553 0.116663
vt 0.919706 0.080294
vt 0.883337 0.050447
vt 0.796822 0.014612
vt 0.750000 0.010000
vt 0.703178 0.014612
vt 0.658156 0.028269
vt 0.616663 0.050447
vt 0.528269 0.158156
vt 0.580294 0.080294
vt 0.550447 0.116663
vt 0.514612 0.203178
vt 0.528269 0.341844
vt 0.510000 0.250000
vt 0.514612 0.296822
vt 0.550447 0.383337
vt 0.580294 0.419706
vt 0.616663 0.449553
vn 0.0878 -0.8910 -0.4455
vn 0.2599 -0.8567 -0.4455
vn 0.4220 -0.7896 -0.4455
vn 0.5680 -0.6921 -0.4455
vn 0.6921 -0.5680 -0.4455
vn 0.7896 -0.4220 -0.4455
vn 0.8567 -0.2599 -0.4455
vn 0.8910 -0.0878 -0.4455
vn 0.8910 0.0878 -0.4455
vn 0.8567 0.2599 -0.4455
vn 0.7896 0.4220 -0.4455
vn 0.6921 0.5680 -0.4455
vn 0.5680 0.6921 -0.4455
vn 0.4220 0.7896 -0.4455
vn 0.2599 0.8567 -0.4455
vn 0.0878 0.8910 -0.4455
vn -0.0878 0.8910 -0.4455
vn -0.2599 0.8567 -0.4455
vn -0.4220 0.7896 -0.4455
vn -0.5680 0.6921 -0.4455
vn -0.6921 0.5680 -0.4455
vn -0.7896 0.4220 -0.4455
vn -0.8567 0.2599 -0.4455
vn -0.8910 0.0878 -0.4455
vn -0.8910 -0.0878 -0.4455
vn -0.8567 -0.2599 -0.4455
vn -0.7896 -0.4220 -0.4455
vn -0.6921 -0.5680 -0.4455
vn -0.5680 -0.6921 -0.4455
vn -0.4220 -0.7896 -0.4455
vn 0.0000 0.0000 1.0000
vn -0.2599 -0.8567 -0.4455
vn -0.0878 -0.8910 -0.4455
vn 0.0980 -0.9952 0.0000
vn 0.2903 -0.9569 0.0000
vn 0.4714 -0.8819 0.0000
vn 0.6344 -0.7730 0.0000
vn 0.7730 -0.6344 0.0000
vn 0.8819 -0.4714 0.0000
vn 0.9569 -0.2903 0.0000
vn 0.9952 -0.0980 0.0000
vn 0.9952 0.0980 -0.0000
vn 0.9569 0.2903 -0.0000
vn 0.8819 0.4714 -0.0000
vn 0.7730 0.6344 -0.0000
vn 0.6344 0.7730 -0.0000
vn 0.4714 0.8819 -0.0000
vn 0.2903 0.9569 -0.0000
vn 0.0980 0.9952 -0.0000
vn -0.0980 0.9952 -0.0000
vn -0.2903 0.9569 -0.0000
vn -0.4714 0.8819 -0.0000
vn -0.6344 0.7730 -0.0000
vn -0.7730 0.6344 -0.0000
vn -0.8819 0.4714 -0.0000
vn -0.9569 0.2903 -0.0000
vn -0.9952 0.0980 -0.0000
vn -0.9952 -0.0980 0.0000
vn -0.9569 -0.2903 0.0000
vn -0.8819 -0.4714 0.0000
vn -0.7730 -0.6344 0.0000
vn -0.6344 -0.7730 0.0000
vn -0.4714 -0.8819 0.0000
vn -0.2903 -0.9569 0.0000
vn -0.0980 -0.9952 0.0000
usemtl Material.001
s off
f 49/1/1 3/2/1 1/3/1
f 49/1/2 4/4/2 3/2/2
f 49/1/3 6/5/3 4/4/3
f 49/1/4 7/6/4 6/5/4
f 49/1/5 9/7/5 7/6/5
f 49/1/6 10/8/6 9/7/6
f 49/1/7 12/9/7 10/8/7
f 49/1/8 13/10/8 12/9/8
f 15/11/9 13/10/9 49/1/9
f 16/12/10 15/11/10 49/1/10
f 18/13/11 16/12/11 49/1/11
f 19/14/12 18/13/12 49/1/12
f 49/1/13 21/15/13 19/14/13
f 49/1/14 23/16/14 21/15/14
f 49/1/15 24/17/15 23/16/15
f 49/1/16 26/18/16 24/17/16
f 27/19/17 26/18/17 49/1/17
f 29/20/18 27/19/18 49/1/18
f 30/21/19 29/20/19 49/1/19
f 32/22/20 30/21/20 49/1/20
f 32/22/21 49/1/21 33/23/21
f 33/23/22 49/1/22 35/24/22
f 35/24/23 49/1/23 36/25/23
f 49/1/24 38/26/24 36/25/24
f 49/1/25 39/27/25 38/26/25
f 49/1/26 40/28/26 39/27/26
f 49/1/27 42/29/27 40/28/27
f 49/1/28 43/30/28 42/29/28
f 43/30/29 49/1/29 45/31/29
f 45/31/30 49/1/30 46/32/30
f 70/33/31 69/34/31 3/35/31
f 24/36/31 67/37/31 66/38/31
f 46/32/32 49/1/32 48/39/32
f 48/39/33 49/1/33 1/3/33
f 2/40/34 70/41/34 5/42/34
f 5/42/35 74/43/35 8/44/35
f 8/44/36 71/45/36 11/46/36
f 11/46/37 83/47/37 14/48/37
f 17/49/38 83/47/38 76/50/38
f 20/51/39 76/50/39 81/52/39
f 22/53/40 81/52/40 78/54/40
f 25/55/41 78/54/41 77/56/41
f 28/57/42 77/56/42 80/58/42
f 31/59/43 80/58/43 79/60/43
f 34/61/44 79/60/44 75/62/44
f 37/63/45 75/62/45 84/64/45
f 41/65/46 84/64/46 72/66/46
f 44/67/47 72/66/47 66/68/47
f 47/69/48 66/68/48 67/70/48
f 50/71/49 67/70/49 68/72/49
f 51/73/50 68/72/50 73/74/50
f 52/75/51 73/74/51 82/76/51
f 53/77/52 82/76/52 87/78/52
f 54/79/53 87/78/53 88/80/53
f 54/79/54 89/81/54 55/82/54
f 55/82/55 91/83/55 56/84/55
f 56/84/56 92/85/56 57/86/56
f 57/86/57 90/87/57 58/88/57
f 58/88/58 93/89/58 59/90/58
f 59/90/59 95/91/59 60/92/59
f 60/92/60 94/93/60 61/94/60
f 61/94/61 97/95/61 62/96/61
f 62/96/62 96/97/62 63/98/62
f 63/98/63 85/99/63 64/100/63
f 64/100/64 86/101/64 65/102/64
f 65/102/65 69/103/65 2/104/65
f 64/105/31 20/106/31 44/107/31
f 46/108/31 48/109/31 85/110/31
f 48/109/31 1/111/31 86/112/31
f 46/108/31 85/110/31 96/113/31
f 1/111/31 3/35/31 69/34/31
f 3/35/31 4/114/31 70/33/31
f 1/111/31 69/34/31 86/112/31
f 4/114/31 6/115/31 71/116/31
f 6/115/31 7/117/31 83/118/31
f 83/118/31 7/117/31 76/119/31
f 7/117/31 9/120/31 76/119/31
f 9/120/31 10/121/31 81/122/31
f 10/121/31 12/123/31 81/122/31
f 12/123/31 78/124/31 81/122/31
f 9/120/31 81/122/31 76/119/31
f 46/108/31 96/113/31 45/125/31
f 43/126/31 45/125/31 97/127/31
f 97/127/31 45/125/31 96/113/31
f 40/128/31 42/129/31 94/130/31
f 42/129/31 43/126/31 97/127/31
f 38/131/31 39/132/31 93/133/31
f 39/132/31 40/128/31 95/134/31
f 95/134/31 40/128/31 94/130/31
f 92/135/31 36/136/31 90/137/31
f 36/136/31 38/131/31 90/137/31
f 42/129/31 97/127/31 94/130/31
f 93/133/31 90/137/31 38/131/31
f 95/134/31 93/133/31 39/132/31
f 6/115/31 83/118/31 71/116/31
f 4/114/31 71/116/31 74/138/31
f 4/114/31 74/138/31 70/33/31
f 85/110/31 48/109/31 86/112/31
f 77/139/31 78/124/31 12/123/31
f 12/123/31 13/140/31 77/139/31
f 13/140/31 15/141/31 80/142/31
f 80/142/31 15/141/31 79/143/31
f 15/141/31 16/144/31 79/143/31
f 16/144/31 18/145/31 79/143/31
f 18/145/31 19/146/31 75/147/31
f 19/146/31 21/148/31 84/149/31
f 18/145/31 75/147/31 79/143/31
f 21/148/31 23/150/31 72/151/31
f 23/150/31 24/36/31 66/38/31
f 21/148/31 72/151/31 84/149/31
f 24/36/31 26/152/31 68/153/31
f 26/152/31 27/154/31 73/155/31
f 73/155/31 27/154/31 82/156/31
f 27/154/31 29/157/31 82/156/31
f 29/157/31 30/158/31 87/159/31
f 30/158/31 32/160/31 87/159/31
f 32/160/31 33/161/31 88/162/31
f 87/159/31 32/160/31 88/162/31
f 33/161/31 35/163/31 89/164/31
f 35/163/31 36/136/31 91/165/31
f 33/161/31 89/164/31 88/162/31
f 36/136/31 92/135/31 91/165/31
f 91/165/31 89/164/31 35/163/31
f 29/157/31 87/159/31 82/156/31
f 80/142/31 77/139/31 13/140/31
f 75/147/31 19/146/31 84/149/31
f 72/151/31 23/150/31 66/38/31
f 26/152/31 73/155/31 68/153/31
f 24/36/31 68/153/31 67/37/31
f 2/40/34 69/166/34 70/41/34
f 5/42/35 70/41/35 74/43/35
f 8/44/36 74/43/36 71/45/36
f 11/46/37 71/45/37 83/47/37
f 17/49/38 14/48/38 83/47/38
f 20/51/39 17/49/39 76/50/39
f 22/53/40 20/51/40 81/52/40
f 25/55/41 22/53/41 78/54/41
f 28/57/42 25/55/42 77/56/42
f 31/59/43 28/57/43 80/58/43
f 34/61/44 31/59/44 79/60/44
f 37/63/45 34/61/45 75/62/45
f 41/65/46 37/63/46 84/64/46
f 44/67/47 41/65/47 72/66/47
f 47/69/48 44/67/48 66/68/48
f 50/71/49 47/69/49 67/70/49
f 51/73/50 50/71/50 68/72/50
f 52/75/51 51/73/51 73/74/51
f 53/77/52 52/75/52 82/76/52
f 54/79/53 53/77/53 87/78/53
f 54/79/54 88/80/54 89/81/54
f 55/82/55 89/81/55 91/83/55
f 56/84/56 91/83/56 92/85/56
f 57/86/57 92/85/57 90/87/57
f 58/88/58 90/87/58 93/89/58
f 59/90/59 93/89/59 95/91/59
f 60/92/60 95/91/60 94/93/60
f 61/94/61 94/93/61 97/95/61
f 62/96/62 97/95/62 96/97/62
f 63/98/63 96/97/63 85/99/63
f 64/100/64 85/99/64 86/101/64
f 65/102/65 86/101/65 69/103/65
f 64/105/31 65/167/31 2/168/31
f 2/168/31 5/169/31 64/105/31
f 5/169/31 8/170/31 64/105/31
f 8/170/31 11/171/31 20/106/31
f 11/171/31 14/172/31 20/106/31
f 14/172/31 17/173/31 20/106/31
f 20/106/31 22/174/31 25/175/31
f 25/175/31 28/176/31 31/177/31
f 31/177/31 34/178/31 44/107/31
f 34/178/31 37/179/31 44/107/31
f 37/179/31 41/180/31 44/107/31
f 44/107/31 47/181/31 50/182/31
f 50/182/31 51/183/31 52/184/31
f 52/184/31 53/185/31 56/186/31
f 53/185/31 54/187/31 56/186/31
f 54/187/31 55/188/31 56/186/31
f 56/186/31 57/189/31 60/190/31
f 57/189/31 58/191/31 60/190/31
f 58/191/31 59/192/31 60/190/31
f 60/190/31 61/193/31 62/194/31
f 62/194/31 63/195/31 60/190/31
f 63/195/31 64/105/31 60/190/31
f 20/106/31 25/175/31 44/107/31
f 25/175/31 31/177/31 44/107/31
f 44/107/31 50/182/31 52/184/31
f 64/105/31 8/170/31 20/106/31
f 44/107/31 52/184/31 64/105/31
f 52/184/31 56/186/31 64/105/31
f 56/186/31 60/190/31 64/105/31
